<mxfile host="Electron" agent="Mozilla/5.0 (Macintosh; Intel Mac OS X 10_15_7) AppleWebKit/537.36 (KHTML, like Gecko) draw.io/26.2.2 Chrome/134.0.6998.178 Electron/35.1.2 Safari/537.36" version="26.2.2">
  <diagram id="1zcTAVt1k4KSup7FvAfL" name="Roadmap">
    <mxGraphModel dx="6460" dy="4679" grid="1" gridSize="10" guides="1" tooltips="1" connect="1" arrows="1" fold="1" page="1" pageScale="1" pageWidth="3300" pageHeight="2339" math="0" shadow="0">
      <root>
        <mxCell id="3D7FDG2aXA9G618_Kong-0" />
        <mxCell id="3D7FDG2aXA9G618_Kong-1" parent="3D7FDG2aXA9G618_Kong-0" />
        <mxCell id="wGroBH12Sy7-OgBsN0fJ-2" value="" style="shape=rect;fillColor=#fff2cc;strokeColor=none;fontSize=24;html=1;whiteSpace=wrap;align=left;verticalAlign=top;spacing=5;rounded=0;" parent="3D7FDG2aXA9G618_Kong-1" vertex="1">
          <mxGeometry x="-3030" y="-1940" width="3890" height="180" as="geometry" />
        </mxCell>
        <mxCell id="wGroBH12Sy7-OgBsN0fJ-4" value="" style="shape=rect;fillColor=#fff2cc;strokeColor=none;fontSize=24;html=1;whiteSpace=wrap;align=left;verticalAlign=top;spacing=5;rounded=0;" parent="3D7FDG2aXA9G618_Kong-1" vertex="1">
          <mxGeometry x="-3030" y="-2156.8" width="3890" height="196.8" as="geometry" />
        </mxCell>
        <mxCell id="wGroBH12Sy7-OgBsN0fJ-5" value="T - Разработка ядра системы (DB + API)" style="shape=rect;fillColor=#ffe6cc;strokeColor=#d79b00;fontSize=18;html=1;whiteSpace=wrap;align=center;verticalAlign=top;spacing=5;rounded=0;" parent="3D7FDG2aXA9G618_Kong-1" vertex="1">
          <mxGeometry x="-3010" y="-2130" width="400" height="60" as="geometry" />
        </mxCell>
        <mxCell id="wGroBH12Sy7-OgBsN0fJ-6" value="&lt;span style=&quot;text-align: left;&quot;&gt;T - Реализация тестов&lt;/span&gt;" style="shape=rect;fillColor=#ffe6cc;strokeColor=#d79b00;fontSize=18;html=1;whiteSpace=wrap;align=center;verticalAlign=top;spacing=5;rounded=0;" parent="3D7FDG2aXA9G618_Kong-1" vertex="1">
          <mxGeometry x="-2750" y="-2050" width="690" height="60" as="geometry" />
        </mxCell>
        <mxCell id="wGroBH12Sy7-OgBsN0fJ-7" value="Rate Service" style="rounded=0;whiteSpace=wrap;html=1;fillColor=#f5f5f5;fontColor=#333333;strokeColor=#666666;fontSize=18;" parent="3D7FDG2aXA9G618_Kong-1" vertex="1">
          <mxGeometry x="-3160" y="-2156.8" width="120" height="196.8" as="geometry" />
        </mxCell>
        <mxCell id="wGroBH12Sy7-OgBsN0fJ-8" value="Система кол-центра&amp;nbsp;" style="rounded=0;whiteSpace=wrap;html=1;fillColor=#f5f5f5;fontColor=#333333;strokeColor=#666666;fontSize=18;" parent="3D7FDG2aXA9G618_Kong-1" vertex="1">
          <mxGeometry x="-3160" y="-1940" width="120" height="180" as="geometry" />
        </mxCell>
        <mxCell id="wGroBH12Sy7-OgBsN0fJ-9" value="Q1" style="shape=step;perimeter=stepPerimeter;whiteSpace=wrap;html=1;fixedSize=1;size=10;fillColor=#f5f5f5;strokeColor=#666666;fontSize=18;fontStyle=1;align=center;rounded=0;fontColor=#333333;" parent="3D7FDG2aXA9G618_Kong-1" vertex="1">
          <mxGeometry x="-3030" y="-2250" width="980" height="74.4" as="geometry" />
        </mxCell>
        <mxCell id="wGroBH12Sy7-OgBsN0fJ-15" value="T - Интеграция с API Rate Service - отображение ставок в UI кол-центра" style="shape=rect;fillColor=#ffe6cc;strokeColor=#d79b00;fontSize=18;html=1;whiteSpace=wrap;align=center;verticalAlign=top;spacing=5;rounded=0;" parent="3D7FDG2aXA9G618_Kong-1" vertex="1">
          <mxGeometry x="-2230" y="-1920" width="800" height="70" as="geometry" />
        </mxCell>
        <mxCell id="URBfQr-kwVYTASm8Ngmn-1" value="Система интеграции с партнёрскими кол-центрами" style="rounded=0;whiteSpace=wrap;html=1;fillColor=#f5f5f5;fontColor=#333333;strokeColor=#666666;fontSize=18;" parent="3D7FDG2aXA9G618_Kong-1" vertex="1">
          <mxGeometry x="-3160" y="-1740" width="120" height="180" as="geometry" />
        </mxCell>
        <mxCell id="URBfQr-kwVYTASm8Ngmn-2" value="" style="shape=rect;fillColor=#fff2cc;strokeColor=none;fontSize=24;html=1;whiteSpace=wrap;align=left;verticalAlign=top;spacing=5;rounded=0;" parent="3D7FDG2aXA9G618_Kong-1" vertex="1">
          <mxGeometry x="-3030" y="-1740" width="3890" height="180" as="geometry" />
        </mxCell>
        <mxCell id="URBfQr-kwVYTASm8Ngmn-3" value="Q2" style="shape=step;perimeter=stepPerimeter;whiteSpace=wrap;html=1;fixedSize=1;size=10;fillColor=#f5f5f5;strokeColor=#666666;fontSize=18;fontStyle=1;align=center;rounded=0;fontColor=#333333;" parent="3D7FDG2aXA9G618_Kong-1" vertex="1">
          <mxGeometry x="-2060" y="-2250" width="980" height="74.4" as="geometry" />
        </mxCell>
        <mxCell id="URBfQr-kwVYTASm8Ngmn-4" value="Q3" style="shape=step;perimeter=stepPerimeter;whiteSpace=wrap;html=1;fixedSize=1;size=10;fillColor=#f5f5f5;strokeColor=#666666;fontSize=18;fontStyle=1;align=center;rounded=0;fontColor=#333333;" parent="3D7FDG2aXA9G618_Kong-1" vertex="1">
          <mxGeometry x="-1090" y="-2250" width="980" height="74.4" as="geometry" />
        </mxCell>
        <mxCell id="URBfQr-kwVYTASm8Ngmn-5" value="Q4" style="shape=step;perimeter=stepPerimeter;whiteSpace=wrap;html=1;fixedSize=1;size=10;fillColor=#f5f5f5;strokeColor=#666666;fontSize=18;fontStyle=1;align=center;rounded=0;fontColor=#333333;" parent="3D7FDG2aXA9G618_Kong-1" vertex="1">
          <mxGeometry x="-120" y="-2250" width="980" height="74.4" as="geometry" />
        </mxCell>
        <mxCell id="URBfQr-kwVYTASm8Ngmn-6" value="T - Запуск процесса ежедневных выгрузок" style="shape=rect;fillColor=#ffe6cc;strokeColor=#d79b00;fontSize=18;html=1;whiteSpace=wrap;align=center;verticalAlign=top;spacing=5;rounded=0;" parent="3D7FDG2aXA9G618_Kong-1" vertex="1">
          <mxGeometry x="-1590" y="-1720" width="310" height="60" as="geometry" />
        </mxCell>
        <mxCell id="URBfQr-kwVYTASm8Ngmn-7" value="T - Тестирование и обучение операторов" style="shape=rect;fillColor=#ffe6cc;strokeColor=#d79b00;fontSize=18;html=1;whiteSpace=wrap;align=center;verticalAlign=top;spacing=5;rounded=0;" parent="3D7FDG2aXA9G618_Kong-1" vertex="1">
          <mxGeometry x="-1540" y="-1640" width="440" height="60" as="geometry" />
        </mxCell>
        <mxCell id="URBfQr-kwVYTASm8Ngmn-8" value="T - Настройка SFTP-канала с партнёрским кол-центром" style="shape=rect;fillColor=#ffe6cc;strokeColor=#d79b00;fontSize=18;html=1;whiteSpace=wrap;align=center;verticalAlign=top;spacing=5;rounded=0;" parent="3D7FDG2aXA9G618_Kong-1" vertex="1">
          <mxGeometry x="-2070" y="-1640" width="480" height="60" as="geometry" />
        </mxCell>
        <mxCell id="URBfQr-kwVYTASm8Ngmn-9" value="Integration Layer" style="rounded=0;whiteSpace=wrap;html=1;fillColor=#f5f5f5;fontColor=#333333;strokeColor=#666666;fontSize=18;" parent="3D7FDG2aXA9G618_Kong-1" vertex="1">
          <mxGeometry x="-3160" y="-1540" width="120" height="180" as="geometry" />
        </mxCell>
        <mxCell id="URBfQr-kwVYTASm8Ngmn-10" value="" style="shape=rect;fillColor=#fff2cc;strokeColor=none;fontSize=24;html=1;whiteSpace=wrap;align=left;verticalAlign=top;spacing=5;rounded=0;" parent="3D7FDG2aXA9G618_Kong-1" vertex="1">
          <mxGeometry x="-3030" y="-1540" width="3890" height="180" as="geometry" />
        </mxCell>
        <mxCell id="URBfQr-kwVYTASm8Ngmn-11" value="Сайт" style="rounded=0;whiteSpace=wrap;html=1;fillColor=#f5f5f5;fontColor=#333333;strokeColor=#666666;fontSize=18;" parent="3D7FDG2aXA9G618_Kong-1" vertex="1">
          <mxGeometry x="-3160" y="-1349" width="120" height="180" as="geometry" />
        </mxCell>
        <mxCell id="URBfQr-kwVYTASm8Ngmn-12" value="" style="shape=rect;fillColor=#fff2cc;strokeColor=none;fontSize=24;html=1;whiteSpace=wrap;align=left;verticalAlign=top;spacing=5;rounded=0;" parent="3D7FDG2aXA9G618_Kong-1" vertex="1">
          <mxGeometry x="-3030" y="-1349" width="3890" height="180" as="geometry" />
        </mxCell>
        <mxCell id="URBfQr-kwVYTASm8Ngmn-13" value="T - Проектирование" style="shape=rect;fillColor=#ffe6cc;strokeColor=#d79b00;fontSize=18;html=1;whiteSpace=wrap;align=center;verticalAlign=top;spacing=5;rounded=0;" parent="3D7FDG2aXA9G618_Kong-1" vertex="1">
          <mxGeometry x="-3010" y="-1510" width="320" height="60" as="geometry" />
        </mxCell>
        <mxCell id="URBfQr-kwVYTASm8Ngmn-14" value="T - Создание очереди заявок" style="shape=rect;fillColor=#ffe6cc;strokeColor=#d79b00;fontSize=18;html=1;whiteSpace=wrap;align=center;verticalAlign=top;spacing=5;rounded=0;" parent="3D7FDG2aXA9G618_Kong-1" vertex="1">
          <mxGeometry x="-2820" y="-1430" width="350" height="60" as="geometry" />
        </mxCell>
        <mxCell id="URBfQr-kwVYTASm8Ngmn-15" value="T - Разработка REST API для подачи заявок через интернет-банк и сайт" style="shape=rect;fillColor=#ffe6cc;strokeColor=#d79b00;fontSize=18;html=1;whiteSpace=wrap;align=center;verticalAlign=top;spacing=5;rounded=0;" parent="3D7FDG2aXA9G618_Kong-1" vertex="1">
          <mxGeometry x="-2670" y="-1510" width="480" height="60" as="geometry" />
        </mxCell>
        <mxCell id="URBfQr-kwVYTASm8Ngmn-16" value="T - Реализация тестов&amp;nbsp;" style="shape=rect;fillColor=#ffe6cc;strokeColor=#d79b00;fontSize=18;html=1;whiteSpace=wrap;align=center;verticalAlign=top;spacing=5;rounded=0;" parent="3D7FDG2aXA9G618_Kong-1" vertex="1">
          <mxGeometry x="-2440" y="-1430" width="360" height="60" as="geometry" />
        </mxCell>
        <mxCell id="URBfQr-kwVYTASm8Ngmn-17" value="Интернет-банк" style="rounded=0;whiteSpace=wrap;html=1;fillColor=#f5f5f5;fontColor=#333333;strokeColor=#666666;fontSize=18;" parent="3D7FDG2aXA9G618_Kong-1" vertex="1">
          <mxGeometry x="-3160" y="-1150" width="120" height="180" as="geometry" />
        </mxCell>
        <mxCell id="URBfQr-kwVYTASm8Ngmn-18" value="" style="shape=rect;fillColor=#fff2cc;strokeColor=none;fontSize=24;html=1;whiteSpace=wrap;align=left;verticalAlign=top;spacing=5;rounded=0;" parent="3D7FDG2aXA9G618_Kong-1" vertex="1">
          <mxGeometry x="-3030" y="-1150" width="3890" height="180" as="geometry" />
        </mxCell>
        <mxCell id="URBfQr-kwVYTASm8Ngmn-19" value="T - Интеграция с REST API Integration Layer (форма заявки)" style="shape=rect;fillColor=#ffe6cc;strokeColor=#d79b00;fontSize=18;html=1;whiteSpace=wrap;align=center;verticalAlign=top;spacing=5;rounded=0;" parent="3D7FDG2aXA9G618_Kong-1" vertex="1">
          <mxGeometry x="-2070" y="-1320" width="360" height="60" as="geometry" />
        </mxCell>
        <mxCell id="URBfQr-kwVYTASm8Ngmn-20" value="T - Интеграция с REST API Integration Layer" style="shape=rect;fillColor=#ffe6cc;strokeColor=#d79b00;fontSize=18;html=1;whiteSpace=wrap;align=center;verticalAlign=top;spacing=5;rounded=0;" parent="3D7FDG2aXA9G618_Kong-1" vertex="1">
          <mxGeometry x="-1920" y="-1140" width="570" height="60" as="geometry" />
        </mxCell>
        <mxCell id="URBfQr-kwVYTASm8Ngmn-21" value="T - Интеграция с АБС" style="shape=rect;fillColor=#ffe6cc;strokeColor=#d79b00;fontSize=18;html=1;whiteSpace=wrap;align=center;verticalAlign=top;spacing=5;rounded=0;" parent="3D7FDG2aXA9G618_Kong-1" vertex="1">
          <mxGeometry x="-2590" y="-2130" width="410" height="60" as="geometry" />
        </mxCell>
        <mxCell id="URBfQr-kwVYTASm8Ngmn-22" value="T - Интеграция с АБС" style="shape=rect;fillColor=#ffe6cc;strokeColor=#d79b00;fontSize=18;html=1;whiteSpace=wrap;align=center;verticalAlign=top;spacing=5;rounded=0;" parent="3D7FDG2aXA9G618_Kong-1" vertex="1">
          <mxGeometry x="-2180" y="-1510" width="410" height="60" as="geometry" />
        </mxCell>
        <mxCell id="URBfQr-kwVYTASm8Ngmn-23" value="Приложение бэк-офиса" style="rounded=0;whiteSpace=wrap;html=1;fillColor=#f5f5f5;fontColor=#333333;strokeColor=#666666;fontSize=18;" parent="3D7FDG2aXA9G618_Kong-1" vertex="1">
          <mxGeometry x="-3160" y="-950" width="120" height="180" as="geometry" />
        </mxCell>
        <mxCell id="URBfQr-kwVYTASm8Ngmn-24" value="" style="shape=rect;fillColor=#fff2cc;strokeColor=none;fontSize=24;html=1;whiteSpace=wrap;align=left;verticalAlign=top;spacing=5;rounded=0;" parent="3D7FDG2aXA9G618_Kong-1" vertex="1">
          <mxGeometry x="-3030" y="-950" width="3890" height="180" as="geometry" />
        </mxCell>
        <mxCell id="URBfQr-kwVYTASm8Ngmn-25" value="T - Интеграция с Rate Service" style="shape=rect;fillColor=#ffe6cc;strokeColor=#d79b00;fontSize=18;html=1;whiteSpace=wrap;align=center;verticalAlign=top;spacing=5;rounded=0;" parent="3D7FDG2aXA9G618_Kong-1" vertex="1">
          <mxGeometry x="-2060" y="-900" width="570" height="60" as="geometry" />
        </mxCell>
        <mxCell id="URBfQr-kwVYTASm8Ngmn-26" value="T - Автоматизация обработки заявок" style="shape=rect;fillColor=#ffe6cc;strokeColor=#d79b00;fontSize=18;html=1;whiteSpace=wrap;align=center;verticalAlign=top;spacing=5;rounded=0;" parent="3D7FDG2aXA9G618_Kong-1" vertex="1">
          <mxGeometry x="-1080" y="-1470" width="940" height="60" as="geometry" />
        </mxCell>
        <mxCell id="URBfQr-kwVYTASm8Ngmn-27" value="T - Подготовка к микросервисной архитектуре" style="shape=rect;fillColor=#ffe6cc;strokeColor=#d79b00;fontSize=18;html=1;whiteSpace=wrap;align=center;verticalAlign=top;spacing=5;rounded=0;" parent="3D7FDG2aXA9G618_Kong-1" vertex="1">
          <mxGeometry x="-590" y="-1120" width="940" height="60" as="geometry" />
        </mxCell>
        <mxCell id="URBfQr-kwVYTASm8Ngmn-28" value="T - Внедрение мониторинга" style="shape=rect;fillColor=#ffe6cc;strokeColor=#d79b00;fontSize=18;html=1;whiteSpace=wrap;align=center;verticalAlign=top;spacing=5;rounded=0;" parent="3D7FDG2aXA9G618_Kong-1" vertex="1">
          <mxGeometry x="-2040" y="-2050" width="430" height="60" as="geometry" />
        </mxCell>
        <mxCell id="URBfQr-kwVYTASm8Ngmn-29" value="T - Внедрение мониторинга" style="shape=rect;fillColor=#ffe6cc;strokeColor=#d79b00;fontSize=18;html=1;whiteSpace=wrap;align=center;verticalAlign=top;spacing=5;rounded=0;" parent="3D7FDG2aXA9G618_Kong-1" vertex="1">
          <mxGeometry x="-1620" y="-1830" width="430" height="60" as="geometry" />
        </mxCell>
        <mxCell id="URBfQr-kwVYTASm8Ngmn-30" value="T - Внедрение мониторинга" style="shape=rect;fillColor=#ffe6cc;strokeColor=#d79b00;fontSize=18;html=1;whiteSpace=wrap;align=center;verticalAlign=top;spacing=5;rounded=0;" parent="3D7FDG2aXA9G618_Kong-1" vertex="1">
          <mxGeometry x="-1260" y="-1720" width="430" height="60" as="geometry" />
        </mxCell>
        <mxCell id="URBfQr-kwVYTASm8Ngmn-32" value="T - Внедрение мониторинга" style="shape=rect;fillColor=#ffe6cc;strokeColor=#d79b00;fontSize=18;html=1;whiteSpace=wrap;align=center;verticalAlign=top;spacing=5;rounded=0;" parent="3D7FDG2aXA9G618_Kong-1" vertex="1">
          <mxGeometry x="-2060" y="-1430" width="430" height="60" as="geometry" />
        </mxCell>
        <mxCell id="URBfQr-kwVYTASm8Ngmn-33" value="T - Внедрение мониторинга" style="shape=rect;fillColor=#ffe6cc;strokeColor=#d79b00;fontSize=18;html=1;whiteSpace=wrap;align=center;verticalAlign=top;spacing=5;rounded=0;" parent="3D7FDG2aXA9G618_Kong-1" vertex="1">
          <mxGeometry x="-1530" y="-1240" width="430" height="60" as="geometry" />
        </mxCell>
        <mxCell id="URBfQr-kwVYTASm8Ngmn-34" value="T - Внедрение мониторинга" style="shape=rect;fillColor=#ffe6cc;strokeColor=#d79b00;fontSize=18;html=1;whiteSpace=wrap;align=center;verticalAlign=top;spacing=5;rounded=0;" parent="3D7FDG2aXA9G618_Kong-1" vertex="1">
          <mxGeometry x="-1535" y="-1060" width="430" height="60" as="geometry" />
        </mxCell>
        <mxCell id="URBfQr-kwVYTASm8Ngmn-35" value="АБС" style="rounded=0;whiteSpace=wrap;html=1;fillColor=#f5f5f5;fontColor=#333333;strokeColor=#666666;fontSize=18;" parent="3D7FDG2aXA9G618_Kong-1" vertex="1">
          <mxGeometry x="-3160" y="-750" width="120" height="180" as="geometry" />
        </mxCell>
        <mxCell id="URBfQr-kwVYTASm8Ngmn-36" value="" style="shape=rect;fillColor=#fff2cc;strokeColor=none;fontSize=24;html=1;whiteSpace=wrap;align=left;verticalAlign=top;spacing=5;rounded=0;" parent="3D7FDG2aXA9G618_Kong-1" vertex="1">
          <mxGeometry x="-3030" y="-750" width="3890" height="180" as="geometry" />
        </mxCell>
        <mxCell id="URBfQr-kwVYTASm8Ngmn-37" value="T - Автоматизация обработки заявок" style="shape=rect;fillColor=#ffe6cc;strokeColor=#d79b00;fontSize=18;html=1;whiteSpace=wrap;align=center;verticalAlign=top;spacing=5;rounded=0;" parent="3D7FDG2aXA9G618_Kong-1" vertex="1">
          <mxGeometry x="-1080" y="-670" width="940" height="60" as="geometry" />
        </mxCell>
        <mxCell id="URBfQr-kwVYTASm8Ngmn-39" value="Фронт-офис может открывать депозит без участия бэк-офиса" style="text;html=1;align=center;verticalAlign=middle;whiteSpace=wrap;rounded=0;fontSize=22;" parent="3D7FDG2aXA9G618_Kong-1" vertex="1">
          <mxGeometry x="-310" y="-400" width="380" height="90" as="geometry" />
        </mxCell>
        <mxCell id="URBfQr-kwVYTASm8Ngmn-40" value="" style="endArrow=none;dashed=1;html=1;dashPattern=1 3;strokeWidth=2;rounded=0;exitX=0.5;exitY=0;exitDx=0;exitDy=0;" parent="3D7FDG2aXA9G618_Kong-1" source="URBfQr-kwVYTASm8Ngmn-41" edge="1">
          <mxGeometry width="50" height="50" relative="1" as="geometry">
            <mxPoint x="-1100" y="-439" as="sourcePoint" />
            <mxPoint x="-1100" y="-2339" as="targetPoint" />
          </mxGeometry>
        </mxCell>
        <mxCell id="URBfQr-kwVYTASm8Ngmn-41" value="Клиент может открыть депозит в интернет-банке с ручной обработкой бэк-офисом" style="text;html=1;align=center;verticalAlign=middle;whiteSpace=wrap;rounded=0;fontSize=22;" parent="3D7FDG2aXA9G618_Kong-1" vertex="1">
          <mxGeometry x="-1290" y="-429" width="380" height="90" as="geometry" />
        </mxCell>
        <mxCell id="URBfQr-kwVYTASm8Ngmn-42" value="T - Автоматизация обработки заявок" style="shape=rect;fillColor=#ffe6cc;strokeColor=#d79b00;fontSize=18;html=1;whiteSpace=wrap;align=center;verticalAlign=top;spacing=5;rounded=0;" parent="3D7FDG2aXA9G618_Kong-1" vertex="1">
          <mxGeometry x="-100" y="-670" width="430" height="60" as="geometry" />
        </mxCell>
        <mxCell id="URBfQr-kwVYTASm8Ngmn-43" value="T - Автоматизация обработки заявок" style="shape=rect;fillColor=#ffe6cc;strokeColor=#d79b00;fontSize=18;html=1;whiteSpace=wrap;align=center;verticalAlign=top;spacing=5;rounded=0;" parent="3D7FDG2aXA9G618_Kong-1" vertex="1">
          <mxGeometry x="-100" y="-1470" width="430" height="60" as="geometry" />
        </mxCell>
        <mxCell id="URBfQr-kwVYTASm8Ngmn-44" value="T - Обновление API для автоматической обработки заявок" style="shape=rect;fillColor=#ffe6cc;strokeColor=#d79b00;fontSize=18;html=1;whiteSpace=wrap;align=center;verticalAlign=top;spacing=5;rounded=0;" parent="3D7FDG2aXA9G618_Kong-1" vertex="1">
          <mxGeometry x="-110" y="-1050" width="460" height="60" as="geometry" />
        </mxCell>
        <mxCell id="URBfQr-kwVYTASm8Ngmn-45" value="T - Реализация тестов" style="shape=rect;fillColor=#ffe6cc;strokeColor=#d79b00;fontSize=18;html=1;whiteSpace=wrap;align=center;verticalAlign=top;spacing=5;rounded=0;" parent="3D7FDG2aXA9G618_Kong-1" vertex="1">
          <mxGeometry x="370" y="-1050" width="460" height="60" as="geometry" />
        </mxCell>
        <mxCell id="URBfQr-kwVYTASm8Ngmn-46" value="" style="endArrow=none;dashed=1;html=1;dashPattern=1 3;strokeWidth=2;rounded=0;exitX=0.5;exitY=0;exitDx=0;exitDy=0;" parent="3D7FDG2aXA9G618_Kong-1" source="URBfQr-kwVYTASm8Ngmn-47" edge="1">
          <mxGeometry width="50" height="50" relative="1" as="geometry">
            <mxPoint x="860" y="-410" as="sourcePoint" />
            <mxPoint x="860" y="-2310" as="targetPoint" />
          </mxGeometry>
        </mxCell>
        <mxCell id="URBfQr-kwVYTASm8Ngmn-47" value="Клиент может открывать депозит или накопительный счёт в интернет-банке" style="text;html=1;align=center;verticalAlign=middle;whiteSpace=wrap;rounded=0;fontSize=22;" parent="3D7FDG2aXA9G618_Kong-1" vertex="1">
          <mxGeometry x="670" y="-400" width="380" height="90" as="geometry" />
        </mxCell>
        <mxCell id="URBfQr-kwVYTASm8Ngmn-48" value="T - Масштабирование системы для новых партнёрских кол-центров" style="shape=rect;fillColor=#ffe6cc;strokeColor=#d79b00;fontSize=18;html=1;whiteSpace=wrap;align=center;verticalAlign=top;spacing=5;rounded=0;" parent="3D7FDG2aXA9G618_Kong-1" vertex="1">
          <mxGeometry x="-560" y="-1640" width="430" height="60" as="geometry" />
        </mxCell>
        <mxCell id="URBfQr-kwVYTASm8Ngmn-49" value="T - Документация" style="shape=rect;fillColor=#ffe6cc;strokeColor=#d79b00;fontSize=18;html=1;whiteSpace=wrap;align=center;verticalAlign=top;spacing=5;rounded=0;" parent="3D7FDG2aXA9G618_Kong-1" vertex="1">
          <mxGeometry x="-2140" y="-2130" width="430" height="60" as="geometry" />
        </mxCell>
        <mxCell id="URBfQr-kwVYTASm8Ngmn-50" value="T - Документация" style="shape=rect;fillColor=#ffe6cc;strokeColor=#d79b00;fontSize=18;html=1;whiteSpace=wrap;align=center;verticalAlign=top;spacing=5;rounded=0;" parent="3D7FDG2aXA9G618_Kong-1" vertex="1">
          <mxGeometry x="-1760" y="-1510" width="650" height="60" as="geometry" />
        </mxCell>
        <mxCell id="URBfQr-kwVYTASm8Ngmn-51" value="T - Интеграция с Rate Service" style="shape=rect;fillColor=#ffe6cc;strokeColor=#d79b00;fontSize=18;html=1;whiteSpace=wrap;align=center;verticalAlign=top;spacing=5;rounded=0;" parent="3D7FDG2aXA9G618_Kong-1" vertex="1">
          <mxGeometry x="-2060" y="-670" width="930" height="60" as="geometry" />
        </mxCell>
        <mxCell id="URBfQr-kwVYTASm8Ngmn-53" value="T - Документация" style="shape=rect;fillColor=#ffe6cc;strokeColor=#d79b00;fontSize=18;html=1;whiteSpace=wrap;align=center;verticalAlign=top;spacing=5;rounded=0;" parent="3D7FDG2aXA9G618_Kong-1" vertex="1">
          <mxGeometry x="-1330" y="-1140" width="430" height="60" as="geometry" />
        </mxCell>
        <mxCell id="URBfQr-kwVYTASm8Ngmn-54" value="T - Документация" style="shape=rect;fillColor=#ffe6cc;strokeColor=#d79b00;fontSize=18;html=1;whiteSpace=wrap;align=center;verticalAlign=top;spacing=5;rounded=0;" parent="3D7FDG2aXA9G618_Kong-1" vertex="1">
          <mxGeometry x="-1080" y="-1640" width="430" height="60" as="geometry" />
        </mxCell>
        <mxCell id="URBfQr-kwVYTASm8Ngmn-56" value="" style="endArrow=none;dashed=1;html=1;dashPattern=1 3;strokeWidth=2;rounded=0;exitX=0.5;exitY=0;exitDx=0;exitDy=0;" parent="3D7FDG2aXA9G618_Kong-1" source="URBfQr-kwVYTASm8Ngmn-39" edge="1">
          <mxGeometry width="50" height="50" relative="1" as="geometry">
            <mxPoint x="-120" y="-400" as="sourcePoint" />
            <mxPoint x="-120" y="-2330" as="targetPoint" />
          </mxGeometry>
        </mxCell>
        <mxCell id="URBfQr-kwVYTASm8Ngmn-55" value="T - Документация" style="shape=rect;fillColor=#ffe6cc;strokeColor=#d79b00;fontSize=18;html=1;whiteSpace=wrap;align=center;verticalAlign=top;spacing=5;rounded=0;" parent="3D7FDG2aXA9G618_Kong-1" vertex="1">
          <mxGeometry x="-240" y="-1720" width="190" height="60" as="geometry" />
        </mxCell>
        <mxCell id="URBfQr-kwVYTASm8Ngmn-57" value="T - Документация" style="shape=rect;fillColor=#ffe6cc;strokeColor=#d79b00;fontSize=18;html=1;whiteSpace=wrap;align=center;verticalAlign=top;spacing=5;rounded=0;" parent="3D7FDG2aXA9G618_Kong-1" vertex="1">
          <mxGeometry x="-1320" y="-750" width="190" height="60" as="geometry" />
        </mxCell>
        <mxCell id="URBfQr-kwVYTASm8Ngmn-58" value="T - Документация" style="shape=rect;fillColor=#ffe6cc;strokeColor=#d79b00;fontSize=18;html=1;whiteSpace=wrap;align=center;verticalAlign=top;spacing=5;rounded=0;" parent="3D7FDG2aXA9G618_Kong-1" vertex="1">
          <mxGeometry x="350" y="-670" width="190" height="60" as="geometry" />
        </mxCell>
        <mxCell id="URBfQr-kwVYTASm8Ngmn-59" value="T - Документация" style="shape=rect;fillColor=#ffe6cc;strokeColor=#d79b00;fontSize=18;html=1;whiteSpace=wrap;align=center;verticalAlign=top;spacing=5;rounded=0;" parent="3D7FDG2aXA9G618_Kong-1" vertex="1">
          <mxGeometry x="-570" y="-1540" width="900" height="60" as="geometry" />
        </mxCell>
        <mxCell id="URBfQr-kwVYTASm8Ngmn-60" value="" style="endArrow=none;dashed=1;html=1;dashPattern=1 3;strokeWidth=2;rounded=0;exitX=0.5;exitY=0;exitDx=0;exitDy=0;" parent="3D7FDG2aXA9G618_Kong-1" source="URBfQr-kwVYTASm8Ngmn-61" edge="1">
          <mxGeometry width="50" height="50" relative="1" as="geometry">
            <mxPoint x="-1770" y="-439" as="sourcePoint" />
            <mxPoint x="-1770" y="-2339" as="targetPoint" />
          </mxGeometry>
        </mxCell>
        <mxCell id="URBfQr-kwVYTASm8Ngmn-61" value="Запущен интеграционный слой" style="text;html=1;align=center;verticalAlign=middle;whiteSpace=wrap;rounded=0;fontSize=22;" parent="3D7FDG2aXA9G618_Kong-1" vertex="1">
          <mxGeometry x="-1960" y="-429" width="380" height="90" as="geometry" />
        </mxCell>
        <mxCell id="URBfQr-kwVYTASm8Ngmn-62" value="" style="endArrow=none;dashed=1;html=1;dashPattern=1 3;strokeWidth=2;rounded=0;exitX=0.5;exitY=0;exitDx=0;exitDy=0;" parent="3D7FDG2aXA9G618_Kong-1" source="URBfQr-kwVYTASm8Ngmn-63" edge="1">
          <mxGeometry width="50" height="50" relative="1" as="geometry">
            <mxPoint x="-2170" y="-439" as="sourcePoint" />
            <mxPoint x="-2170" y="-2339" as="targetPoint" />
          </mxGeometry>
        </mxCell>
        <mxCell id="URBfQr-kwVYTASm8Ngmn-63" value="Запущен Rate Service" style="text;html=1;align=center;verticalAlign=middle;whiteSpace=wrap;rounded=0;fontSize=22;" parent="3D7FDG2aXA9G618_Kong-1" vertex="1">
          <mxGeometry x="-2360" y="-429" width="380" height="90" as="geometry" />
        </mxCell>
        <mxCell id="lF09liaGFcCWzayasx9F-0" value="T - Запуск маркетинговой компании" style="shape=rect;fillColor=#ffe6cc;strokeColor=#d79b00;fontSize=18;html=1;whiteSpace=wrap;align=center;verticalAlign=top;spacing=5;rounded=0;" vertex="1" parent="3D7FDG2aXA9G618_Kong-1">
          <mxGeometry x="370" y="-1320" width="480" height="60" as="geometry" />
        </mxCell>
      </root>
    </mxGraphModel>
  </diagram>
</mxfile>
